<svg xmlns="http://www.w3.org/2000/svg" width="24" height="24" viewBox="0 0 24 24">
  <g id="home-lined" transform="translate(4.663 4)">
    <rect id="Rectangle_22390" data-name="Rectangle 22390" width="24" height="24" transform="translate(-4.663 -4)" fill="none"/>
    <path id="home_1_" data-name="home (1)" d="M14.441,18h-3a.563.563,0,0,1-.562-.562V12.562a.188.188,0,0,0-.188-.187H7.316a.188.188,0,0,0-.187.187v4.875A.563.563,0,0,1,6.566,18h-3a1.314,1.314,0,0,1-1.313-1.313V9.749H.941A.939.939,0,0,1,0,8.812a.951.951,0,0,1,.278-.667L8.615.155a.562.562,0,0,1,.779,0l8.325,7.98A.961.961,0,0,1,18,8.812a.939.939,0,0,1-.937.938H15.754v6.937A1.314,1.314,0,0,1,14.441,18ZM12,16.874h2.437a.19.19,0,0,0,.187-.188v-7.5a.563.563,0,0,1,.563-.562H16.6L9,1.341l-7.6,7.283H2.816a.563.563,0,0,1,.563.563v7.5a.19.19,0,0,0,.188.188H6V12.562a1.314,1.314,0,0,1,1.312-1.312h3.375A1.314,1.314,0,0,1,12,12.562Zm0,0" transform="translate(-1.667 -0.999)" fill="#767676"/>
  </g>
</svg>
