<svg id="home-filled" xmlns="http://www.w3.org/2000/svg" width="24" height="24" viewBox="0 0 24 24">
  <rect id="Rectangle_22389" data-name="Rectangle 22389" width="24" height="24" fill="none"/>
  <path id="home" d="M17.714,8.135,9.389.155a.562.562,0,0,0-.778,0L.278,8.144A.951.951,0,0,0,0,8.811a.939.939,0,0,0,.938.938H2.25v7.125A1.125,1.125,0,0,0,3.375,18H6.563a.563.563,0,0,0,.563-.562V12.561a.188.188,0,0,1,.187-.188h3.375a.189.189,0,0,1,.187.188v4.875a.563.563,0,0,0,.563.563h3.188a1.125,1.125,0,0,0,1.125-1.125V9.749h1.312A.939.939,0,0,0,18,8.811.958.958,0,0,0,17.714,8.135Zm0,0" transform="translate(2.971 4.002)" fill="#1776d3"/>
</svg>
