<svg xmlns="http://www.w3.org/2000/svg" width="24" height="24" viewBox="0 0 24 24">
  <g id="learn-lined" transform="translate(-0.558)">
    <rect id="Rectangle_22393" data-name="Rectangle 22393" width="24" height="24" transform="translate(0.558)" fill="none"/>
    <g id="Group_148885" data-name="Group 148885" transform="translate(-815.604 -243.877)">
      <g id="Group_148864" data-name="Group 148864" transform="translate(820.664 255.112)">
        <g id="Group_148863" data-name="Group 148863">
          <path id="Path_198099" data-name="Path 198099" d="M836.259,257.441v-2.8a.53.53,0,0,0-.53-.53H821.2a.53.53,0,0,0-.531.53v2.8a6.869,6.869,0,0,0,3.424,5.876H821.2a.53.53,0,1,0,0,1.06h14.534a.53.53,0,0,0,0-1.06h-2.894A6.869,6.869,0,0,0,836.259,257.441Z" transform="translate(-820.664 -254.112)" fill="#1776d3"/>
        </g>
      </g>
      <g id="Group_148866" data-name="Group 148866" transform="translate(836.794 255.753)">
        <g id="Group_148865" data-name="Group 148865">
          <g id="Path_198100" data-name="Path 198100" transform="translate(-835.717 -255.066)" fill="none">
            <path d="M836.32,255.066v1.084a1.635,1.635,0,0,1-.242,3.2,7.713,7.713,0,0,1-.361,1.072h.17a2.7,2.7,0,0,0,.433-5.356Z" stroke="none"/>
            <path d="M 836.3200073242188 255.0659790039062 C 837.6010131835938 255.2739868164062 838.5819702148438 256.3880004882812 838.5819702148438 257.7269897460938 C 838.5819702148438 259.2130126953125 837.3729858398438 260.4219970703125 835.8870239257812 260.4219970703125 L 835.7169799804688 260.4219970703125 C 835.8619995117188 260.0759887695312 835.9840087890625 259.7179870605469 836.0780029296875 259.3500061035156 C 836.8900146484375 259.2550048828125 837.52197265625 258.56298828125 837.52197265625 257.7269897460938 C 837.52197265625 256.9750061035156 837.0120239257812 256.3399963378906 836.3200073242188 256.1499938964844 L 836.3200073242188 255.0659790039062 Z" stroke="none" fill="#1776d3"/>
          </g>
        </g>
      </g>
      <g id="Group_148868" data-name="Group 148868" transform="translate(830.609 246.377)">
        <g id="Group_148867" data-name="Group 148867">
          <path id="Path_198101" data-name="Path 198101" d="M831.66,249.846a2.049,2.049,0,0,0,.858-1.559,2.53,2.53,0,0,0-.839-1.776.531.531,0,1,0-.705.793,1.53,1.53,0,0,1,.483.958,1.033,1.033,0,0,1-.464.759,2.05,2.05,0,0,0-.858,1.56,2.525,2.525,0,0,0,.839,1.775.53.53,0,1,0,.707-.79,1.489,1.489,0,0,1-.486-.964A1.041,1.041,0,0,1,831.66,249.846Z" transform="translate(-830.135 -246.377)" fill="#1776d3"/>
        </g>
      </g>
      <g id="Group_148870" data-name="Group 148870" transform="translate(827.075 246.377)">
        <g id="Group_148869" data-name="Group 148869">
          <path id="Path_198102" data-name="Path 198102" d="M828.295,249.846a2.046,2.046,0,0,0,.858-1.559,2.526,2.526,0,0,0-.839-1.776.531.531,0,0,0-.705.793,1.529,1.529,0,0,1,.484.958,1.033,1.033,0,0,1-.464.759,2.052,2.052,0,0,0-.859,1.56,2.525,2.525,0,0,0,.839,1.775.534.534,0,0,0,.354.135.53.53,0,0,0,.353-.925,1.489,1.489,0,0,1-.485-.964A1.036,1.036,0,0,1,828.295,249.846Z" transform="translate(-826.77 -246.377)" fill="#1776d3"/>
        </g>
      </g>
      <g id="Group_148872" data-name="Group 148872" transform="translate(823.543 246.377)">
        <g id="Group_148871" data-name="Group 148871">
          <path id="Path_198103" data-name="Path 198103" d="M824.93,249.846a2.046,2.046,0,0,0,.858-1.559,2.527,2.527,0,0,0-.838-1.776.531.531,0,1,0-.705.793,1.53,1.53,0,0,1,.483.958,1.033,1.033,0,0,1-.464.759,2.047,2.047,0,0,0-.858,1.56,2.521,2.521,0,0,0,.839,1.775.53.53,0,0,0,.705-.792,1.532,1.532,0,0,1-.484-.958A1.036,1.036,0,0,1,824.93,249.846Z" transform="translate(-823.406 -246.377)" fill="#1776d3"/>
        </g>
      </g>
    </g>
  </g>
</svg>
