<svg xmlns="http://www.w3.org/2000/svg" width="24" height="24" viewBox="0 0 24 24">
  <g id="learn_icon" data-name="learn icon" transform="translate(-0.558)">
    <rect id="Rectangle_22393" data-name="Rectangle 22393" width="24" height="24" transform="translate(0.558)" fill="none"/>
    <g id="Component_137_4" data-name="Component 137 – 4" transform="translate(5.06 2.5)">
      <g id="Group_148886" data-name="Group 148886" transform="translate(-820.664 -246.377)">
        <g id="Group_148864" data-name="Group 148864" transform="translate(820.664 255.112)">
          <g id="Group_148863" data-name="Group 148863">
            <g id="Path_198099" data-name="Path 198099" transform="translate(-820.664 -254.112)" fill="none">
              <path d="M836.259,257.441v-2.8a.53.53,0,0,0-.53-.53H821.2a.53.53,0,0,0-.531.53v2.8a6.869,6.869,0,0,0,3.424,5.876H821.2a.53.53,0,1,0,0,1.06h14.534a.53.53,0,0,0,0-1.06h-2.894A6.869,6.869,0,0,0,836.259,257.441Z" stroke="none"/>
              <path d="M 821.6640014648438 255.1119995117188 L 821.6640014648438 257.4410095214844 C 821.6640014648438 259.4830322265625 822.7620239257812 261.3588256835938 824.6012573242188 262.4587707519531 L 826.13671875 263.3770141601562 L 830.7863159179688 263.3770141601562 L 832.32177734375 262.4587707519531 C 834.1609497070312 261.3588562011719 835.2589721679688 259.4830322265625 835.2589721679688 257.4410095214844 L 835.2589721679688 255.1119995117188 L 821.6640014648438 255.1119995117188 M 821.1950073242188 254.1119995117188 L 835.72900390625 254.1119995117188 C 836.02197265625 254.1119995117188 836.2589721679688 254.3489990234375 836.2589721679688 254.6419982910156 L 836.2589721679688 257.4410095214844 C 836.2589721679688 259.9140014648438 834.8900146484375 262.0880126953125 832.8350219726562 263.3169860839844 L 835.72900390625 263.3169860839844 C 836.02197265625 263.3169860839844 836.2589721679688 263.5539855957031 836.2589721679688 263.8469848632812 C 836.2589721679688 264.1400146484375 836.02197265625 264.3770141601562 835.72900390625 264.3770141601562 L 821.1950073242188 264.3770141601562 C 820.9019775390625 264.3770141601562 820.6649780273438 264.1400146484375 820.6649780273438 263.8469848632812 C 820.6649780273438 263.5539855957031 820.9019775390625 263.3169860839844 821.1950073242188 263.3169860839844 L 824.0880126953125 263.3169860839844 C 822.0330200195312 262.0880126953125 820.6640014648438 259.9140014648438 820.6640014648438 257.4410095214844 L 820.6640014648438 254.6419982910156 C 820.6640014648438 254.3489990234375 820.9019775390625 254.1119995117188 821.1950073242188 254.1119995117188 Z" stroke="none" fill="#767676"/>
            </g>
          </g>
        </g>
        <g id="Group_148866" data-name="Group 148866" transform="translate(836.794 255.753)">
          <g id="Group_148865" data-name="Group 148865">
            <g id="Path_198100" data-name="Path 198100" transform="translate(-835.717 -255.066)" fill="none">
              <path d="M836.32,255.066v1.084a1.635,1.635,0,0,1-.242,3.2,7.713,7.713,0,0,1-.361,1.072h.17a2.7,2.7,0,0,0,.433-5.356Z" stroke="none"/>
              <path d="M 836.3200073242188 255.0659790039062 C 837.6010131835938 255.2739868164062 838.5819702148438 256.3880004882812 838.5819702148438 257.7269897460938 C 838.5819702148438 259.2130126953125 837.3729858398438 260.4219970703125 835.8870239257812 260.4219970703125 L 835.7169799804688 260.4219970703125 C 835.8619995117188 260.0759887695312 835.9840087890625 259.7179870605469 836.0780029296875 259.3500061035156 C 836.8900146484375 259.2550048828125 837.52197265625 258.56298828125 837.52197265625 257.7269897460938 C 837.52197265625 256.9750061035156 837.0120239257812 256.3399963378906 836.3200073242188 256.1499938964844 L 836.3200073242188 255.0659790039062 Z" stroke="none" fill="#767676"/>
            </g>
          </g>
        </g>
        <g id="Group_148868" data-name="Group 148868" transform="translate(830.609 246.377)">
          <g id="Group_148867" data-name="Group 148867">
            <path id="Path_198101" data-name="Path 198101" d="M831.66,249.846a2.049,2.049,0,0,0,.858-1.559,2.53,2.53,0,0,0-.839-1.776.531.531,0,1,0-.705.793,1.53,1.53,0,0,1,.483.958,1.033,1.033,0,0,1-.464.759,2.05,2.05,0,0,0-.858,1.56,2.525,2.525,0,0,0,.839,1.775.53.53,0,1,0,.707-.79,1.489,1.489,0,0,1-.486-.964A1.041,1.041,0,0,1,831.66,249.846Z" transform="translate(-830.135 -246.377)" fill="#767676"/>
          </g>
        </g>
        <g id="Group_148870" data-name="Group 148870" transform="translate(827.075 246.377)">
          <g id="Group_148869" data-name="Group 148869">
            <path id="Path_198102" data-name="Path 198102" d="M828.295,249.846a2.046,2.046,0,0,0,.858-1.559,2.526,2.526,0,0,0-.839-1.776.531.531,0,0,0-.705.793,1.529,1.529,0,0,1,.484.958,1.033,1.033,0,0,1-.464.759,2.052,2.052,0,0,0-.859,1.56,2.525,2.525,0,0,0,.839,1.775.534.534,0,0,0,.354.135.53.53,0,0,0,.353-.925,1.489,1.489,0,0,1-.485-.964A1.036,1.036,0,0,1,828.295,249.846Z" transform="translate(-826.77 -246.377)" fill="#767676"/>
          </g>
        </g>
        <g id="Group_148872" data-name="Group 148872" transform="translate(823.543 246.377)">
          <g id="Group_148871" data-name="Group 148871">
            <path id="Path_198103" data-name="Path 198103" d="M824.93,249.846a2.046,2.046,0,0,0,.858-1.559,2.527,2.527,0,0,0-.838-1.776.531.531,0,1,0-.705.793,1.53,1.53,0,0,1,.483.958,1.033,1.033,0,0,1-.464.759,2.047,2.047,0,0,0-.858,1.56,2.521,2.521,0,0,0,.839,1.775.53.53,0,0,0,.705-.792,1.532,1.532,0,0,1-.484-.958A1.036,1.036,0,0,1,824.93,249.846Z" transform="translate(-823.406 -246.377)" fill="#767676"/>
          </g>
        </g>
      </g>
    </g>
  </g>
</svg>
